<svg width="20" height="23" viewBox="0 0 20 23" fill="none" xmlns="http://www.w3.org/2000/svg">
<path fill-rule="evenodd" clip-rule="evenodd" d="M11.8177 3.45665C10.802 2.48206 9.19844 2.48206 8.18278 3.45665L2.78526 8.63587C2.65302 8.76277 2.56406 8.92807 2.53101 9.10834C1.88452 12.6338 1.8368 16.2431 2.38985 19.7844L2.52112 20.625H5.99366V13.3785C5.99366 12.8952 6.38541 12.5035 6.86866 12.5035H13.1318C13.6151 12.5035 14.0068 12.8952 14.0068 13.3785V20.625H17.4793L17.6106 19.7844C18.1637 16.2431 18.116 12.6338 17.4695 9.10834C17.4364 8.92806 17.3475 8.76277 17.2152 8.63587L11.8177 3.45665ZM6.97114 2.19394C8.66391 0.569631 11.3366 0.569631 13.0293 2.19394L18.4268 7.37316C18.8242 7.75442 19.0914 8.25106 19.1908 8.7927C19.8727 12.5116 19.9231 16.3188 19.3397 20.0545L19.1288 21.4048C19.0416 21.9633 18.5606 22.375 17.9953 22.375H13.1318C12.6486 22.375 12.2568 21.9833 12.2568 21.5V14.2535H7.74366V21.5C7.74366 21.9833 7.35191 22.375 6.86866 22.375H2.00514C1.43991 22.375 0.95891 21.9633 0.871696 21.4048L0.660806 20.0545C0.0774166 16.3188 0.127755 12.5116 0.809707 8.7927C0.909029 8.25106 1.17629 7.75442 1.57362 7.37316L6.97114 2.19394Z" fill="#666666"/>
</svg>
