<svg width="24" height="21" viewBox="0 0 24 21" fill="none" xmlns="http://www.w3.org/2000/svg">
<path fill-rule="evenodd" clip-rule="evenodd" d="M11.9999 0.374634L20.4858 0.614562C21.9852 0.656957 23.2254 1.79522 23.3959 3.28552C23.7734 6.5844 23.7734 9.91556 23.3959 13.2144C23.2254 14.7047 21.9852 15.843 20.4858 15.8854L14.0416 16.0676V18.4583H17.8333C18.3165 18.4583 18.7083 18.8501 18.7083 19.3333C18.7083 19.8166 18.3165 20.2083 17.8333 20.2083H6.1666C5.68335 20.2083 5.2916 19.8166 5.2916 19.3333C5.2916 18.8501 5.68335 18.4583 6.1666 18.4583H9.95826V16.0676L3.51401 15.8854C2.01459 15.843 0.774401 14.7047 0.603886 13.2144C0.226439 9.91556 0.226439 6.5844 0.603886 3.28552C0.774401 1.79522 2.01459 0.656957 3.51401 0.614562L11.9999 0.374634ZM11.9999 2.12533L3.56347 2.36386C2.9344 2.38165 2.41408 2.8592 2.34254 3.48445C1.98022 6.65114 1.98022 9.84882 2.34254 13.0155C2.41408 13.6408 2.9344 14.1183 3.56347 14.1361L11.9999 14.3746L20.4364 14.1361C21.0654 14.1183 21.5857 13.6408 21.6573 13.0155C22.0196 9.84882 22.0196 6.65114 21.6573 3.48445C21.5857 2.8592 21.0654 2.38165 20.4364 2.36386L11.9999 2.12533Z" fill="#666666"/>
</svg>
