<svg width="20" height="21" viewBox="0 0 20 21" fill="none" xmlns="http://www.w3.org/2000/svg">
<path fill-rule="evenodd" clip-rule="evenodd" d="M5.04183 5.75002C5.04183 3.01161 7.26175 0.791687 10.0002 0.791687C12.7386 0.791687 14.9585 3.01161 14.9585 5.75002C14.9585 8.48843 12.7386 10.7084 10.0002 10.7084C7.26175 10.7084 5.04183 8.48843 5.04183 5.75002ZM10.0002 2.54169C8.22825 2.54169 6.79183 3.97811 6.79183 5.75002C6.79183 7.52193 8.22825 8.95835 10.0002 8.95835C11.7721 8.95835 13.2085 7.52193 13.2085 5.75002C13.2085 3.97811 11.7721 2.54169 10.0002 2.54169Z" fill="#666666"/>
<path fill-rule="evenodd" clip-rule="evenodd" d="M5.3335 14.2084C3.88375 14.2084 2.7085 15.3836 2.7085 16.8334V18.2197C2.7085 18.2408 2.72379 18.2588 2.74463 18.2622C7.54984 19.0467 12.4505 19.0467 17.2557 18.2622C17.2765 18.2588 17.2918 18.2408 17.2918 18.2197V16.8334C17.2918 15.3836 16.1166 14.2084 14.6668 14.2084H14.2691C14.2384 14.2084 14.2078 14.2132 14.1786 14.2228L13.1688 14.5525C11.1099 15.2248 8.89044 15.2248 6.83148 14.5525L5.82171 14.2228C5.79248 14.2132 5.76193 14.2084 5.73118 14.2084H5.3335ZM0.958496 16.8334C0.958496 14.4171 2.91725 12.4584 5.3335 12.4584H5.73118C5.94642 12.4584 6.16031 12.4924 6.36491 12.5592L7.37468 12.8889C9.08068 13.446 10.9196 13.446 12.6256 12.8889L13.6354 12.5592C13.84 12.4924 14.0539 12.4584 14.2691 12.4584H14.6668C17.0831 12.4584 19.0418 14.4171 19.0418 16.8334V18.2197C19.0418 19.0985 18.405 19.8477 17.5377 19.9893C12.5457 20.8043 7.45461 20.8043 2.46265 19.9893C1.59536 19.8477 0.958496 19.0985 0.958496 18.2197V16.8334Z" fill="#666666"/>
</svg>
